<?xml version="1.0" encoding="UTF-8" standalone="no"?>
<!-- Created with Inkscape (http://www.inkscape.org/) -->

<svg
   xmlns:dc="http://purl.org/dc/elements/1.1/"
   xmlns:cc="http://creativecommons.org/ns#"
   xmlns:rdf="http://www.w3.org/1999/02/22-rdf-syntax-ns#"
   xmlns:svg="http://www.w3.org/2000/svg"
   xmlns="http://www.w3.org/2000/svg"
   xmlns:xlink="http://www.w3.org/1999/xlink"
   xmlns:sodipodi="http://sodipodi.sourceforge.net/DTD/sodipodi-0.dtd"
   xmlns:inkscape="http://www.inkscape.org/namespaces/inkscape"
   width="48"
   height="48"
   id="svg4228"
   version="1.1"
   inkscape:version="0.91 r13725"
   viewBox="0 0 48 48"
   sodipodi:docname="color-fill.svg">
  <defs
     id="defs4230">
    <linearGradient
       inkscape:collect="always"
       id="linearGradient4812">
      <stop
         style="stop-color:#babdb6;stop-opacity:1;"
         offset="0"
         id="stop4814" />
      <stop
         style="stop-color:#edeeec;stop-opacity:1"
         offset="1"
         id="stop4816" />
    </linearGradient>
    <linearGradient
       inkscape:collect="always"
       xlink:href="#linearGradient4812"
       id="linearGradient4818"
       x1="7"
       y1="23"
       x2="33"
       y2="23"
       gradientUnits="userSpaceOnUse" />
  </defs>
  <sodipodi:namedview
     id="base"
     pagecolor="#ffffff"
     bordercolor="#666666"
     borderopacity="1.0"
     inkscape:pageopacity="0.0"
     inkscape:pageshadow="2"
     inkscape:zoom="14.428571"
     inkscape:cx="21.42593"
     inkscape:cy="25.781668"
     inkscape:current-layer="layer1"
     showgrid="true"
     inkscape:grid-bbox="true"
     inkscape:document-units="px"
     inkscape:snap-grids="false">
    <inkscape:grid
       type="xygrid"
       id="grid4236" />
  </sodipodi:namedview>
  <metadata
     id="metadata4233">
    <rdf:RDF>
      <cc:Work
         rdf:about="">
        <dc:format>image/svg+xml</dc:format>
        <dc:type
           rdf:resource="http://purl.org/dc/dcmitype/StillImage" />
        <dc:title></dc:title>
      </cc:Work>
    </rdf:RDF>
  </metadata>
  <g
     id="layer1"
     inkscape:label="Layer 1"
     inkscape:groupmode="layer">
    <path
       style="fill:#babdb6;fill-rule:evenodd;stroke:none;stroke-width:1px;stroke-linecap:butt;stroke-linejoin:miter;stroke-opacity:1"
       d="M 15.871287,20.554455 C 4.5508356,19.836244 2.3797431,28.266522 2.7029703,35.663366 2.816974,38.272268 3.4135384,40.540205 5.8910891,40.653465 7.7948665,40.740495 8.8358035,37.635251 8.8019802,35.732673 8.7592659,33.329968 8.569971,29.227769 9.7722772,27.623762 10.404409,26.780431 13.09901,25.475248 13.09901,25.475248 l 3.326733,-3.049505 z"
       id="path4837"
       inkscape:connector-curvature="0"
       sodipodi:nodetypes="cssssccc" />
    <g
       id="g4827"
       transform="matrix(0.70710678,-0.70710678,0.70710678,0.70710678,-3.1564387,24.860506)">
      <path
         style="opacity:1;fill:url(#linearGradient4818);fill-opacity:1;stroke:#2e3436;stroke-width:2;stroke-linejoin:miter;stroke-miterlimit:4;stroke-dasharray:none;stroke-opacity:1"
         d="m 32,12 0,22 c 0,2.216 -1.784,4 -4,4 L 12,38 C 9.784,38 8,36.216 8,34 L 8,12 Z"
         id="path4825"
         inkscape:connector-curvature="0"
         sodipodi:nodetypes="csssscc" />
      <path
         style="opacity:1;fill:none;fill-opacity:1;stroke:#ffffff;stroke-width:1.71794486;stroke-linejoin:miter;stroke-miterlimit:4;stroke-dasharray:none;stroke-opacity:0.66666667"
         d="m 30.269741,13.903527 0,19.024502 c 0,2.436088 -1.522169,3.459 -3.412934,3.459 l -13.651733,0 c -1.890765,0 -3.4129332,-0.387029 -3.4129332,-3.459 l 0,-19.024502 z"
         id="path4821"
         inkscape:connector-curvature="0"
         sodipodi:nodetypes="csssscc" />
      <path
         sodipodi:nodetypes="csssscc"
         inkscape:connector-curvature="0"
         id="rect4810"
         d="m 32,12 0,22 c 0,2.216 -1.784,4 -4,4 L 12,38 C 9.784,38 8,36.216 8,34 L 8,12 Z"
         style="opacity:1;fill:none;fill-opacity:1;stroke:#2e3436;stroke-width:2;stroke-linejoin:miter;stroke-miterlimit:4;stroke-dasharray:none;stroke-opacity:1" />
    </g>
    <circle
       style="opacity:1;fill:#888a85;fill-opacity:1;stroke:#2e3436;stroke-width:2;stroke-linejoin:miter;stroke-miterlimit:4;stroke-dasharray:none;stroke-opacity:1"
       id="path4832"
       cx="20"
       cy="20"
       r="4" />
    <path
       style="opacity:1;fill:none;fill-opacity:1;stroke:#2e3436;stroke-width:2;stroke-linejoin:miter;stroke-miterlimit:4;stroke-dasharray:none;stroke-opacity:1"
       d="M 20,16.306931 20,5 c 0,-1.662 1.338,-3 3,-3 1.662,0 3,1.338 3,3 l 0,8.049505"
       id="rect4834"
       inkscape:connector-curvature="0"
       sodipodi:nodetypes="csssc" />
    <circle
       style="opacity:1;fill:#babdb6;fill-opacity:1;stroke:none;stroke-width:2;stroke-linejoin:miter;stroke-miterlimit:4;stroke-dasharray:none;stroke-opacity:1"
       id="path4839"
       cx="5.6485147"
       cy="44.014851"
       r="2.3910892" />
  </g>
</svg>
