<?xml version="1.0" encoding="UTF-8" standalone="no"?>
<!-- Created with Inkscape (http://www.inkscape.org/) -->

<svg
   xmlns:dc="http://purl.org/dc/elements/1.1/"
   xmlns:cc="http://creativecommons.org/ns#"
   xmlns:rdf="http://www.w3.org/1999/02/22-rdf-syntax-ns#"
   xmlns:svg="http://www.w3.org/2000/svg"
   xmlns="http://www.w3.org/2000/svg"
   xmlns:sodipodi="http://sodipodi.sourceforge.net/DTD/sodipodi-0.dtd"
   xmlns:inkscape="http://www.inkscape.org/namespaces/inkscape"
   width="48"
   height="48"
   id="svg4171"
   version="1.1"
   inkscape:version="0.91 r13725"
   viewBox="0 0 48 48"
   sodipodi:docname="transform-rotate-90.svg">
  <defs
     id="defs4173" />
  <sodipodi:namedview
     id="base"
     pagecolor="#ffffff"
     bordercolor="#666666"
     borderopacity="1.0"
     inkscape:pageopacity="0.0"
     inkscape:pageshadow="2"
     inkscape:zoom="14"
     inkscape:cx="26.94423"
     inkscape:cy="27.485714"
     inkscape:current-layer="layer1"
     showgrid="true"
     inkscape:grid-bbox="true"
     inkscape:document-units="px"
     inkscape:snap-bbox="true"
     inkscape:bbox-paths="false"
     inkscape:bbox-nodes="false"
     inkscape:snap-center="true"
     inkscape:snap-others="true"
     inkscape:snap-object-midpoints="false">
    <inkscape:grid
       type="xygrid"
       id="grid4719" />
  </sodipodi:namedview>
  <metadata
     id="metadata4176">
    <rdf:RDF>
      <cc:Work
         rdf:about="">
        <dc:format>image/svg+xml</dc:format>
        <dc:type
           rdf:resource="http://purl.org/dc/dcmitype/StillImage" />
        <dc:title />
      </cc:Work>
    </rdf:RDF>
  </metadata>
  <g
     id="layer1"
     inkscape:label="Layer 1"
     inkscape:groupmode="layer">
    <path
       inkscape:connector-curvature="0"
       id="path5290"
       style="font-style:normal;font-variant:normal;font-weight:bold;font-stretch:normal;font-size:40px;line-height:125%;font-family:'Enter Sansman';-inkscape-font-specification:'Enter Sansman Bold';text-align:start;letter-spacing:0px;word-spacing:0px;writing-mode:lr-tb;text-anchor:start;fill:#2e3436;fill-opacity:1;stroke:none;stroke-width:1px;stroke-linecap:butt;stroke-linejoin:miter;stroke-opacity:1"
       d="m 42.033717,5.6383945 0,27.1893025 q 0,1.967315 -0.50444,3.43019 -0.504439,1.412431 -1.563763,2.370868 -0.50444,0.453995 -1.210656,0.756659 -0.655771,0.353108 -1.462875,0.554884 -1.2611,0.302664 -2.875307,0.302664 l -7.415264,0 q -0.554883,0 -1.109767,-0.05044 -0.50444,0 -1.059323,-0.100894 -0.50444,-0.100895 -1.00888,-0.353108 -0.504439,-0.201775 -0.907991,-0.554884 -0.302664,-0.252219 -0.554885,-0.655771 -0.252219,-0.353108 -0.403551,-0.857548 -0.201776,-0.50444 -0.302664,-1.109768 -0.05044,-0.605327 -0.05044,-1.412431 l -15.6376319,7.213489 0,-14.023425 15.5871869,-6.002834 0,-4.035518 -15.5871869,0 0,-12.661437 36.0674419,0 z m -5.952389,12.7623255 -8.525031,0 0,7.919704 q 0,0.403552 0.100894,0.605328 0.151331,0.252219 0.403552,0.403552 0.201776,0.151331 0.504439,0.201776 0.302664,0.05044 0.756659,0.05044 l 5.498393,0 q 0.353109,0 0.605328,-0.100895 0.25222,-0.100894 0.403552,-0.302664 0.151332,-0.201776 0.201776,-0.504439 0.05044,-0.25222 0.05044,-0.50444 l 0,-7.768372 z" />
  </g>
</svg>
