<?xml version="1.0" encoding="UTF-8" standalone="no"?>
<!-- Created with Inkscape (http://www.inkscape.org/) -->

<svg
   xmlns:dc="http://purl.org/dc/elements/1.1/"
   xmlns:cc="http://creativecommons.org/ns#"
   xmlns:rdf="http://www.w3.org/1999/02/22-rdf-syntax-ns#"
   xmlns:svg="http://www.w3.org/2000/svg"
   xmlns="http://www.w3.org/2000/svg"
   xmlns:sodipodi="http://sodipodi.sourceforge.net/DTD/sodipodi-0.dtd"
   xmlns:inkscape="http://www.inkscape.org/namespaces/inkscape"
   width="48"
   height="48"
   id="svg4171"
   version="1.1"
   inkscape:version="0.91 r13725"
   viewBox="0 0 48 48"
   sodipodi:docname="transform-rotate-180.svg">
  <defs
     id="defs4173" />
  <sodipodi:namedview
     id="base"
     pagecolor="#ffffff"
     bordercolor="#666666"
     borderopacity="1.0"
     inkscape:pageopacity="0.0"
     inkscape:pageshadow="2"
     inkscape:zoom="14"
     inkscape:cx="26.94423"
     inkscape:cy="27.485714"
     inkscape:current-layer="layer1"
     showgrid="true"
     inkscape:grid-bbox="true"
     inkscape:document-units="px"
     inkscape:snap-bbox="true"
     inkscape:bbox-paths="false"
     inkscape:bbox-nodes="false"
     inkscape:snap-center="true"
     inkscape:snap-others="true"
     inkscape:snap-object-midpoints="false">
    <inkscape:grid
       type="xygrid"
       id="grid4719" />
  </sodipodi:namedview>
  <metadata
     id="metadata4176">
    <rdf:RDF>
      <cc:Work
         rdf:about="">
        <dc:format>image/svg+xml</dc:format>
        <dc:type
           rdf:resource="http://purl.org/dc/dcmitype/StillImage" />
        <dc:title></dc:title>
      </cc:Work>
    </rdf:RDF>
  </metadata>
  <g
     id="layer1"
     inkscape:label="Layer 1"
     inkscape:groupmode="layer">
    <path
       inkscape:connector-curvature="0"
       id="path5290"
       style="font-style:normal;font-variant:normal;font-weight:bold;font-stretch:normal;font-size:40px;line-height:125%;font-family:'Enter Sansman';-inkscape-font-specification:'Enter Sansman Bold';text-align:start;letter-spacing:0px;word-spacing:0px;writing-mode:lr-tb;text-anchor:start;fill:#2e3436;fill-opacity:1;stroke:none;stroke-width:1px;stroke-linecap:butt;stroke-linejoin:miter;stroke-opacity:1"
       d="m 42.361606,42.033717 -27.189303,0 q -1.967315,0 -3.43019,-0.50444 -1.412431,-0.504439 -2.3708679,-1.563763 -0.453995,-0.50444 -0.756659,-1.210656 -0.353108,-0.655771 -0.554884,-1.462875 -0.302664,-1.2611 -0.302664,-2.875307 l 0,-7.415264 q 0,-0.554883 0.05044,-1.109767 0,-0.50444 0.100894,-1.059323 0.100895,-0.50444 0.353108,-1.00888 0.201775,-0.504439 0.554884,-0.907991 0.252219,-0.302664 0.655771,-0.554885 0.353108,-0.252219 0.8575479,-0.403551 0.50444,-0.201776 1.109768,-0.302664 0.605327,-0.05044 1.412431,-0.05044 L 5.6383931,5.9662791 l 14.0234249,0 6.002834,15.5871869 4.035518,0 0,-15.5871869 12.661437,0 0,36.0674419 z m -12.762326,-5.952389 0,-8.525031 -7.919704,0 q -0.403552,0 -0.605328,0.100894 -0.252219,0.151331 -0.403552,0.403552 -0.151331,0.201776 -0.201776,0.504439 -0.05044,0.302664 -0.05044,0.756659 l 0,5.498393 q 0,0.353109 0.100895,0.605328 0.100894,0.25222 0.302664,0.403552 0.201776,0.151332 0.504439,0.201776 0.25222,0.05044 0.50444,0.05044 l 7.768372,0 z" />
  </g>
</svg>
